<mxfile host="app.diagrams.net" modified="2022-11-30T04:26:35.070Z" agent="5.0 (Macintosh; Intel Mac OS X 10_15_7) AppleWebKit/537.36 (KHTML, like Gecko) Chrome/107.0.0.0 Safari/537.36" etag="sc47tqHcl3S6dD48j0bi" version="20.3.6" type="github">
  <diagram name="Page-1" id="55a83fd1-7818-8e21-69c5-c3457e3827bb">
    <mxGraphModel dx="2286" dy="614" grid="1" gridSize="10" guides="1" tooltips="1" connect="1" arrows="1" fold="1" page="1" pageScale="1" pageWidth="1100" pageHeight="850" background="none" math="0" shadow="0">
      <root>
        <mxCell id="0" />
        <mxCell id="1" parent="0" />
        <mxCell id="r3Tc5o4a9rt03ika3DRH-27" value="" style="ellipse;whiteSpace=wrap;html=1;" vertex="1" parent="1">
          <mxGeometry x="400" y="1300" width="390" height="310" as="geometry" />
        </mxCell>
        <mxCell id="r3Tc5o4a9rt03ika3DRH-25" value="" style="ellipse;whiteSpace=wrap;html=1;" vertex="1" parent="1">
          <mxGeometry x="600" y="830" width="500" height="450" as="geometry" />
        </mxCell>
        <mxCell id="r3Tc5o4a9rt03ika3DRH-24" value="" style="ellipse;whiteSpace=wrap;html=1;" vertex="1" parent="1">
          <mxGeometry x="10" y="840" width="580" height="430" as="geometry" />
        </mxCell>
        <mxCell id="69ecfefc5c41e42c-1" value="" style="image;html=1;labelBackgroundColor=#ffffff;image=img/lib/clip_art/networking/Wireless_Router_128x128.png;rounded=1;shadow=0;comic=0;strokeWidth=2;fontSize=22" parent="1" vertex="1">
          <mxGeometry x="550" y="1730" width="80" height="80" as="geometry" />
        </mxCell>
        <mxCell id="69ecfefc5c41e42c-5" value="PC" style="image;html=1;labelBackgroundColor=#ffffff;image=img/lib/clip_art/computers/Monitor_Tower_128x128.png;rounded=1;shadow=0;comic=0;strokeWidth=2;fontSize=22" parent="1" vertex="1">
          <mxGeometry x="80" y="980" width="80" height="80" as="geometry" />
        </mxCell>
        <mxCell id="r3Tc5o4a9rt03ika3DRH-1" value="FIRST FLOOR IDF:&amp;nbsp;" style="rounded=0;whiteSpace=wrap;html=1;" vertex="1" parent="1">
          <mxGeometry x="240" y="910" width="120" height="30" as="geometry" />
        </mxCell>
        <mxCell id="r3Tc5o4a9rt03ika3DRH-3" value="PC" style="image;html=1;labelBackgroundColor=#ffffff;image=img/lib/clip_art/computers/Monitor_Tower_128x128.png;rounded=1;shadow=0;comic=0;strokeWidth=2;fontSize=22" vertex="1" parent="1">
          <mxGeometry x="220" y="980" width="80" height="80" as="geometry" />
        </mxCell>
        <mxCell id="r3Tc5o4a9rt03ika3DRH-5" value="PC" style="image;html=1;labelBackgroundColor=#ffffff;image=img/lib/clip_art/computers/Monitor_Tower_128x128.png;rounded=1;shadow=0;comic=0;strokeWidth=2;fontSize=22" vertex="1" parent="1">
          <mxGeometry x="410" y="980" width="80" height="80" as="geometry" />
        </mxCell>
        <mxCell id="r3Tc5o4a9rt03ika3DRH-6" value="" style="image;html=1;image=img/lib/clip_art/networking/Switch_128x128.png" vertex="1" parent="1">
          <mxGeometry x="290" y="1160" width="80" height="80" as="geometry" />
        </mxCell>
        <mxCell id="r3Tc5o4a9rt03ika3DRH-7" value="" style="endArrow=none;html=1;rounded=0;" edge="1" parent="1">
          <mxGeometry width="50" height="50" relative="1" as="geometry">
            <mxPoint x="150" y="1080" as="sourcePoint" />
            <mxPoint x="280" y="1180" as="targetPoint" />
          </mxGeometry>
        </mxCell>
        <mxCell id="r3Tc5o4a9rt03ika3DRH-11" value="FIRST FLOOR SWITCH" style="text;html=1;strokeColor=none;fillColor=none;align=center;verticalAlign=middle;whiteSpace=wrap;rounded=0;" vertex="1" parent="1">
          <mxGeometry x="270" y="1220" width="100" height="30" as="geometry" />
        </mxCell>
        <mxCell id="r3Tc5o4a9rt03ika3DRH-12" value="PC" style="image;html=1;labelBackgroundColor=#ffffff;image=img/lib/clip_art/computers/Monitor_Tower_128x128.png;rounded=1;shadow=0;comic=0;strokeWidth=2;fontSize=22" vertex="1" parent="1">
          <mxGeometry x="680" y="970" width="80" height="80" as="geometry" />
        </mxCell>
        <mxCell id="r3Tc5o4a9rt03ika3DRH-13" value="PC" style="image;html=1;labelBackgroundColor=#ffffff;image=img/lib/clip_art/computers/Monitor_Tower_128x128.png;rounded=1;shadow=0;comic=0;strokeWidth=2;fontSize=22" vertex="1" parent="1">
          <mxGeometry x="840" y="970" width="80" height="80" as="geometry" />
        </mxCell>
        <mxCell id="r3Tc5o4a9rt03ika3DRH-14" value="PC" style="image;html=1;labelBackgroundColor=#ffffff;image=img/lib/clip_art/computers/Monitor_Tower_128x128.png;rounded=1;shadow=0;comic=0;strokeWidth=2;fontSize=22" vertex="1" parent="1">
          <mxGeometry x="980" y="970" width="80" height="80" as="geometry" />
        </mxCell>
        <mxCell id="r3Tc5o4a9rt03ika3DRH-16" value="SECOND FLOOR IDF:&amp;nbsp;" style="rounded=0;whiteSpace=wrap;html=1;" vertex="1" parent="1">
          <mxGeometry x="770" y="910" width="140" height="20" as="geometry" />
        </mxCell>
        <mxCell id="r3Tc5o4a9rt03ika3DRH-17" value="" style="image;html=1;image=img/lib/clip_art/networking/Switch_128x128.png" vertex="1" parent="1">
          <mxGeometry x="830" y="1160" width="80" height="80" as="geometry" />
        </mxCell>
        <mxCell id="r3Tc5o4a9rt03ika3DRH-18" value="" style="endArrow=none;html=1;rounded=0;" edge="1" parent="1">
          <mxGeometry width="50" height="50" relative="1" as="geometry">
            <mxPoint x="400" y="1200" as="sourcePoint" />
            <mxPoint x="810" y="1200" as="targetPoint" />
          </mxGeometry>
        </mxCell>
        <mxCell id="r3Tc5o4a9rt03ika3DRH-19" value="SECOND FLOOR SWITCH" style="text;html=1;strokeColor=none;fillColor=none;align=center;verticalAlign=middle;whiteSpace=wrap;rounded=0;" vertex="1" parent="1">
          <mxGeometry x="820" y="1230" width="100" height="30" as="geometry" />
        </mxCell>
        <mxCell id="r3Tc5o4a9rt03ika3DRH-20" value="" style="endArrow=none;html=1;rounded=0;" edge="1" parent="1">
          <mxGeometry width="50" height="50" relative="1" as="geometry">
            <mxPoint x="730" y="1080" as="sourcePoint" />
            <mxPoint x="820" y="1160" as="targetPoint" />
          </mxGeometry>
        </mxCell>
        <mxCell id="r3Tc5o4a9rt03ika3DRH-21" value="" style="endArrow=none;html=1;rounded=0;" edge="1" parent="1">
          <mxGeometry width="50" height="50" relative="1" as="geometry">
            <mxPoint x="880" y="1100" as="sourcePoint" />
            <mxPoint x="880" y="1150" as="targetPoint" />
          </mxGeometry>
        </mxCell>
        <mxCell id="r3Tc5o4a9rt03ika3DRH-22" value="" style="endArrow=none;html=1;rounded=0;" edge="1" parent="1">
          <mxGeometry width="50" height="50" relative="1" as="geometry">
            <mxPoint x="1010" y="1090" as="sourcePoint" />
            <mxPoint x="920" y="1160" as="targetPoint" />
          </mxGeometry>
        </mxCell>
        <mxCell id="r3Tc5o4a9rt03ika3DRH-23" value="" style="html=1;strokeWidth=1;shadow=0;dashed=0;shape=mxgraph.ios7.misc.vpn;fillColor=#007AFF;strokeColor=none;buttonText=;strokeColor2=#222222;fontColor=#222222;fontSize=8;verticalLabelPosition=bottom;verticalAlign=top;align=center;sketch=0;" vertex="1" parent="1">
          <mxGeometry x="555" y="1350" width="80" height="60" as="geometry" />
        </mxCell>
        <mxCell id="r3Tc5o4a9rt03ika3DRH-28" value="MDF" style="text;html=1;strokeColor=none;fillColor=none;align=center;verticalAlign=middle;whiteSpace=wrap;rounded=0;" vertex="1" parent="1">
          <mxGeometry x="570" y="1320" width="60" height="30" as="geometry" />
        </mxCell>
        <mxCell id="r3Tc5o4a9rt03ika3DRH-29" value="" style="endArrow=none;html=1;rounded=0;entryX=0.547;entryY=0.999;entryDx=0;entryDy=0;entryPerimeter=0;" edge="1" parent="1" source="r3Tc5o4a9rt03ika3DRH-27" target="r3Tc5o4a9rt03ika3DRH-24">
          <mxGeometry width="50" height="50" relative="1" as="geometry">
            <mxPoint x="335" y="1320" as="sourcePoint" />
            <mxPoint x="385" y="1270" as="targetPoint" />
            <Array as="points">
              <mxPoint x="370" y="1290" />
            </Array>
          </mxGeometry>
        </mxCell>
        <mxCell id="r3Tc5o4a9rt03ika3DRH-30" value="" style="endArrow=none;html=1;rounded=0;" edge="1" parent="1" source="r3Tc5o4a9rt03ika3DRH-27">
          <mxGeometry width="50" height="50" relative="1" as="geometry">
            <mxPoint x="810" y="1330" as="sourcePoint" />
            <mxPoint x="860" y="1280" as="targetPoint" />
          </mxGeometry>
        </mxCell>
        <mxCell id="r3Tc5o4a9rt03ika3DRH-34" value="" style="image;html=1;image=img/lib/clip_art/computers/Server_Tower_128x128.png" vertex="1" parent="1">
          <mxGeometry x="310" y="1430" width="80" height="140" as="geometry" />
        </mxCell>
        <mxCell id="r3Tc5o4a9rt03ika3DRH-36" value="Proxy Server" style="text;html=1;strokeColor=none;fillColor=none;align=center;verticalAlign=middle;whiteSpace=wrap;rounded=0;" vertex="1" parent="1">
          <mxGeometry x="240" y="1530" width="90" height="30" as="geometry" />
        </mxCell>
        <mxCell id="r3Tc5o4a9rt03ika3DRH-37" value="" style="endArrow=none;html=1;rounded=0;" edge="1" parent="1">
          <mxGeometry width="50" height="50" relative="1" as="geometry">
            <mxPoint x="370" y="1550" as="sourcePoint" />
            <mxPoint x="580" y="1620" as="targetPoint" />
            <Array as="points">
              <mxPoint x="570" y="1740" />
            </Array>
          </mxGeometry>
        </mxCell>
        <mxCell id="r3Tc5o4a9rt03ika3DRH-38" value="" style="html=1;fillColor=#CCCCCC;strokeColor=#6881B3;gradientColor=none;gradientDirection=north;strokeWidth=2;shape=mxgraph.networks.comm_link_edge;html=1;labelBackgroundColor=none;endArrow=none;fontFamily=Verdana;fontSize=22;fontColor=#000000;" edge="1" parent="1">
          <mxGeometry width="100" height="100" relative="1" as="geometry">
            <mxPoint x="530" y="1620" as="sourcePoint" />
            <mxPoint x="560" y="1710" as="targetPoint" />
            <Array as="points">
              <mxPoint x="570" y="1720" />
            </Array>
          </mxGeometry>
        </mxCell>
        <mxCell id="r3Tc5o4a9rt03ika3DRH-39" value="Firewall" style="image;html=1;labelBackgroundColor=#ffffff;image=img/lib/clip_art/networking/Firewall_128x128.png;rounded=1;shadow=0;comic=0;strokeWidth=2;fontSize=22;labelPosition=right;verticalLabelPosition=middle;align=left;verticalAlign=middle;" vertex="1" parent="1">
          <mxGeometry x="550" y="1900" width="80" height="80" as="geometry" />
        </mxCell>
        <mxCell id="r3Tc5o4a9rt03ika3DRH-40" value="" style="endArrow=none;html=1;rounded=0;" edge="1" parent="1">
          <mxGeometry width="50" height="50" relative="1" as="geometry">
            <mxPoint x="315" y="1170" as="sourcePoint" />
            <mxPoint x="270" y="1100" as="targetPoint" />
            <Array as="points" />
          </mxGeometry>
        </mxCell>
        <mxCell id="r3Tc5o4a9rt03ika3DRH-41" value="" style="endArrow=none;html=1;rounded=0;labelBackgroundColor=default;strokeColor=default;fontFamily=Helvetica;fontSize=11;fontColor=default;shape=connector;" edge="1" parent="1">
          <mxGeometry width="50" height="50" relative="1" as="geometry">
            <mxPoint x="350" y="1180" as="sourcePoint" />
            <mxPoint x="430" y="1100" as="targetPoint" />
          </mxGeometry>
        </mxCell>
        <mxCell id="r3Tc5o4a9rt03ika3DRH-42" value="" style="endArrow=none;html=1;rounded=0;labelBackgroundColor=default;strokeColor=default;fontFamily=Helvetica;fontSize=11;fontColor=default;shape=connector;" edge="1" parent="1">
          <mxGeometry width="50" height="50" relative="1" as="geometry">
            <mxPoint x="589.5" y="1885" as="sourcePoint" />
            <mxPoint x="589.5" y="1820" as="targetPoint" />
          </mxGeometry>
        </mxCell>
        <mxCell id="r3Tc5o4a9rt03ika3DRH-43" value="" style="endArrow=none;html=1;rounded=0;labelBackgroundColor=default;strokeColor=default;fontFamily=Helvetica;fontSize=11;fontColor=default;shape=connector;" edge="1" parent="1">
          <mxGeometry width="50" height="50" relative="1" as="geometry">
            <mxPoint x="589.5" y="2070" as="sourcePoint" />
            <mxPoint x="589.5" y="2010" as="targetPoint" />
          </mxGeometry>
        </mxCell>
        <mxCell id="r3Tc5o4a9rt03ika3DRH-45" value="Internet" style="image;html=1;labelBackgroundColor=#ffffff;image=img/lib/clip_art/networking/Cloud_128x128.png;rounded=1;shadow=0;comic=0;strokeWidth=2;fontSize=22;labelPosition=center;verticalLabelPosition=top;align=center;verticalAlign=bottom;" vertex="1" parent="1">
          <mxGeometry x="555" y="2110" width="80" height="80" as="geometry" />
        </mxCell>
        <mxCell id="r3Tc5o4a9rt03ika3DRH-63" value="" style="sketch=0;pointerEvents=1;shadow=0;dashed=0;html=1;strokeColor=none;fillColor=#505050;labelPosition=center;verticalLabelPosition=bottom;verticalAlign=top;outlineConnect=0;align=center;shape=mxgraph.office.communications.telephone_extension_dial_plan;fontFamily=Helvetica;fontSize=11;fontColor=default;" vertex="1" parent="1">
          <mxGeometry x="90" y="1100" width="60" height="56" as="geometry" />
        </mxCell>
        <mxCell id="r3Tc5o4a9rt03ika3DRH-64" value="" style="endArrow=none;html=1;rounded=0;labelBackgroundColor=default;strokeColor=default;fontFamily=Helvetica;fontSize=11;fontColor=default;shape=connector;" edge="1" parent="1">
          <mxGeometry width="50" height="50" relative="1" as="geometry">
            <mxPoint x="109.5" y="1210" as="sourcePoint" />
            <mxPoint x="109.5" y="1160" as="targetPoint" />
          </mxGeometry>
        </mxCell>
        <mxCell id="r3Tc5o4a9rt03ika3DRH-65" value="" style="image;html=1;labelBackgroundColor=#ffffff;image=img/lib/clip_art/networking/Wireless_Router_128x128.png;rounded=1;shadow=0;comic=0;strokeWidth=2;fontSize=22" vertex="1" parent="1">
          <mxGeometry x="555" y="1415" width="80" height="80" as="geometry" />
        </mxCell>
        <mxCell id="r3Tc5o4a9rt03ika3DRH-66" value="Gateway" style="text;html=1;strokeColor=none;fillColor=none;align=center;verticalAlign=middle;whiteSpace=wrap;rounded=0;fontFamily=Helvetica;fontSize=11;fontColor=default;" vertex="1" parent="1">
          <mxGeometry x="560" y="1490" width="60" height="30" as="geometry" />
        </mxCell>
        <mxCell id="r3Tc5o4a9rt03ika3DRH-67" value="" style="image;html=1;image=img/lib/clip_art/networking/Switch_128x128.png" vertex="1" parent="1">
          <mxGeometry x="70" y="1210" width="80" height="80" as="geometry" />
        </mxCell>
        <mxCell id="r3Tc5o4a9rt03ika3DRH-68" value="" style="html=1;fillColor=#CCCCCC;strokeColor=#6881B3;gradientColor=none;gradientDirection=north;strokeWidth=2;shape=mxgraph.networks.comm_link_edge;html=1;labelBackgroundColor=none;endArrow=none;fontFamily=Verdana;fontSize=22;fontColor=#000000;entryX=0;entryY=0.5;entryDx=0;entryDy=0;" edge="1" parent="1" target="r3Tc5o4a9rt03ika3DRH-65">
          <mxGeometry width="100" height="100" relative="1" as="geometry">
            <mxPoint x="150" y="1255" as="sourcePoint" />
            <mxPoint x="180" y="1345" as="targetPoint" />
            <Array as="points">
              <mxPoint x="-110" y="1195" />
              <mxPoint x="190" y="1355" />
            </Array>
          </mxGeometry>
        </mxCell>
        <mxCell id="r3Tc5o4a9rt03ika3DRH-69" value="" style="sketch=0;pointerEvents=1;shadow=0;dashed=0;html=1;strokeColor=none;fillColor=#505050;labelPosition=center;verticalLabelPosition=bottom;verticalAlign=top;outlineConnect=0;align=center;shape=mxgraph.office.communications.telephone_extension_dial_plan;fontFamily=Helvetica;fontSize=11;fontColor=default;" vertex="1" parent="1">
          <mxGeometry x="1000" y="1104" width="60" height="56" as="geometry" />
        </mxCell>
        <mxCell id="r3Tc5o4a9rt03ika3DRH-70" value="" style="endArrow=none;html=1;rounded=0;labelBackgroundColor=default;strokeColor=default;fontFamily=Helvetica;fontSize=11;fontColor=default;shape=connector;" edge="1" parent="1">
          <mxGeometry width="50" height="50" relative="1" as="geometry">
            <mxPoint x="1019.5" y="1210" as="sourcePoint" />
            <mxPoint x="1019.5" y="1160" as="targetPoint" />
            <Array as="points">
              <mxPoint x="1019.5" y="1180" />
            </Array>
          </mxGeometry>
        </mxCell>
        <mxCell id="r3Tc5o4a9rt03ika3DRH-71" value="" style="image;html=1;image=img/lib/clip_art/networking/Switch_128x128.png" vertex="1" parent="1">
          <mxGeometry x="980" y="1200" width="80" height="80" as="geometry" />
        </mxCell>
        <mxCell id="r3Tc5o4a9rt03ika3DRH-72" value="" style="html=1;fillColor=#CCCCCC;strokeColor=#6881B3;gradientColor=none;gradientDirection=north;strokeWidth=2;shape=mxgraph.networks.comm_link_edge;html=1;labelBackgroundColor=none;endArrow=none;fontFamily=Verdana;fontSize=22;fontColor=#000000;entryX=1;entryY=0.5;entryDx=0;entryDy=0;exitX=0.5;exitY=1;exitDx=0;exitDy=0;" edge="1" parent="1" source="r3Tc5o4a9rt03ika3DRH-71" target="r3Tc5o4a9rt03ika3DRH-65">
          <mxGeometry width="100" height="100" relative="1" as="geometry">
            <mxPoint x="767.5" y="1300" as="sourcePoint" />
            <mxPoint x="1172.5" y="1500" as="targetPoint" />
            <Array as="points">
              <mxPoint x="507.5" y="1240" />
              <mxPoint x="807.5" y="1400" />
            </Array>
          </mxGeometry>
        </mxCell>
      </root>
    </mxGraphModel>
  </diagram>
</mxfile>
